<svg width="1617" height="512" viewBox="0 0 1617 512" fill="none" xmlns="http://www.w3.org/2000/svg">
    <path fill-rule="evenodd" clip-rule="evenodd" d="M0 256C0 114.615 114.615 0 256 0C397.385 0 512 114.615 512 256C512 304.073 498.749 349.052 475.701 387.482C472.88 392.185 468.108 395.346 462.718 396.359L423.533 403.72C411.223 406.033 399.841 396.59 399.841 384.064V254.832C399.841 244.01 408.449 235.151 419.267 234.84L449.907 233.961C460.725 233.651 469.333 224.792 469.333 213.969V186C469.333 174.954 460.379 166 449.333 166H419.841C408.795 166 399.841 157.046 399.841 146V112.5C399.841 101.454 390.886 92.4998 379.841 92.4998H349.5C338.454 92.4998 329.5 101.454 329.5 112.5V146C329.5 157.046 320.546 166 309.5 166H268.635C267.547 166 266.46 166.089 265.386 166.265L227.1 172.568C220.975 173.577 215.263 168.316 209.904 165.181V165.181C206.379 163.119 201.822 162.869 197.591 165.396L111.151 215.996C104.913 219.648 97.1889 219.649 90.9492 215.999L48.2832 191.043C42.2242 187.499 33.9494 190.42 29.8947 197.536C29.2312 198.7 28.6778 199.929 28.3448 201.286L11.7599 257.293C9.56544 264.703 0 263.729 0 256V256ZM18.0599 346.022C16.5861 345.161 15.4536 343.818 14.879 342.211V342.211C14.3614 340.764 14.3274 339.188 14.7631 337.714L40.7328 249.845C44.4134 237.391 58.8014 231.693 70.0106 238.25L217.976 324.8C229.035 331.269 231.245 346.322 222.511 355.696L167.232 415.031C160.857 421.873 150.592 423.385 142.516 418.67L18.0599 346.022ZM110.9 434.659C92.7974 424.07 77.9906 441.165 94.238 454.427C138.332 490.416 194.645 512 256 512C299.465 512 340.4 501.168 376.252 482.056C381.828 479.084 378.654 472.152 372.594 473.94V473.94C370.419 474.581 368.072 473.848 366.648 472.083L333.929 431.494C331.063 427.939 329.5 423.509 329.5 418.942V250.115C329.5 241.361 323.807 233.624 315.449 231.02L257.648 213.013C256.551 212.672 255.428 212.425 254.289 212.276L238.489 210.213C226.524 208.65 215.91 217.958 215.898 230.025L215.852 277.568C215.845 284.68 219.615 291.26 225.754 294.851L268.609 319.918C274.668 323.462 276.307 332.184 272.253 339.299L269.932 342.599L173.609 446.156C164.773 455.476 151.72 458.535 141.585 452.607L110.9 434.659ZM159.25 255.951C172.571 263.743 189.323 254.152 189.348 238.72L189.352 236.148C189.378 220.672 172.571 211.033 159.226 218.869L157.029 220.158C143.852 227.895 143.868 246.953 157.058 254.669L159.25 255.951ZM92.1798 320.214C100.289 305.983 116.839 300.14 128.957 307.228C141.075 314.316 144.354 331.759 136.245 345.989C128.135 360.22 111.586 366.063 99.4678 358.975C87.3499 351.887 84.0703 334.444 92.1798 320.214Z" fill="#E87810"/>
    <path d="M1538.37 409.653C1545.8 401.214 1551.88 391.926 1556.62 381.797C1557.23 380.64 1558.97 379.601 1561.43 379.78C1563.93 379.961 1565 381.174 1565.2 382.127L1572.84 418.178C1575.33 429.969 1587.7 436.81 1599.01 432.661C1608.41 429.214 1613.76 419.29 1611.47 409.544L1583.33 289.981C1583.33 289.971 1583.33 289.962 1583.33 289.952C1581.96 283.802 1579.76 277.064 1576.77 269.754C1573.67 261.841 1569.37 254.461 1563.9 247.619C1558.31 240.636 1551.36 234.905 1543.1 230.413C1534.83 225.405 1525.24 222.98 1514.49 222.98C1496.5 222.98 1480.51 227.233 1466.69 235.872L1466.67 235.885L1466.65 235.899C1453.45 244.36 1442.43 255.038 1433.63 267.908C1424.87 280.709 1418.32 294.998 1413.96 310.744C1409.63 326.067 1407.45 340.96 1407.45 355.41C1407.45 380.468 1413.13 400.778 1425.02 415.818L1425.06 415.864L1425.09 415.908C1437.52 430.819 1455.35 438.035 1477.87 438.035C1490.53 438.035 1502 435.463 1512.16 430.208L1512.19 430.195L1512.21 430.182C1522.42 424.736 1531.16 417.897 1538.37 409.653ZM1511.8 265.611L1511.85 265.619L1511.9 265.627C1513.88 265.91 1515.87 266.33 1517.87 266.888C1525.21 270.058 1530.48 275.112 1533.87 282.162L1533.92 282.261L1533.97 282.358C1537.79 289.407 1539.77 297.761 1539.77 307.559C1539.77 316.486 1538.23 326.307 1535.07 337.051L1535.06 337.093L1535.05 337.136C1532.23 347.491 1528.16 357.03 1522.85 365.77C1517.58 374.441 1511.27 381.665 1503.93 387.489C1496.85 392.785 1489.34 395.344 1481.29 395.344C1469 395.344 1460.8 391.369 1455.67 384.07C1450.17 376.255 1447.21 365.692 1447.21 351.992C1447.21 343.318 1448.45 333.77 1450.98 323.328C1453.8 312.975 1457.72 303.44 1462.7 294.707C1467.96 286.061 1474.25 279.035 1481.54 273.561L1481.56 273.552L1481.57 273.544C1488.93 267.946 1497.09 265.184 1506.19 265.184C1508.25 265.184 1510.12 265.331 1511.8 265.611ZM550.027 274.844V420.324C550.027 431.769 558.959 441.225 570.385 441.878C582.773 442.586 593.207 432.732 593.207 420.324V274.844C593.207 262.92 583.541 253.254 571.617 253.254C559.693 253.254 550.027 262.92 550.027 274.844ZM537.738 173.689L555.068 214.849C559.407 225.152 570.756 230.593 581.506 227.522C594.291 223.869 600.979 209.832 595.76 197.602L578.234 156.524C573.97 146.532 563.05 141.15 552.529 143.856C539.525 147.2 532.527 161.314 537.738 173.689ZM635.138 246.133L649.567 432.863C650.342 442.896 659.296 450.278 669.293 449.124C678.247 448.091 685.004 440.51 685.004 431.496V371.48C685.004 366.51 687.387 361.841 691.413 358.926L785.844 290.545C793.731 284.833 796.323 274.251 791.968 265.542C786.603 254.811 773.029 251.237 763.076 257.935L701.739 299.209C691.858 305.857 678.483 299.343 677.626 287.465L674.431 243.197C673.617 231.91 663.483 223.627 652.259 225.076C641.857 226.418 634.33 235.675 635.138 246.133ZM823.465 274.844V420.324C823.465 431.769 832.396 441.225 843.823 441.878C856.211 442.586 866.645 432.732 866.645 420.324V274.844C866.645 262.92 856.978 253.254 845.055 253.254C833.131 253.254 823.465 262.92 823.465 274.844ZM811.175 173.689L828.506 214.849C832.844 225.152 844.194 230.593 854.943 227.522C867.729 223.869 874.416 209.832 869.198 197.602L851.671 156.524C847.408 146.532 836.488 141.15 825.967 143.856C812.963 147.2 805.965 161.314 811.175 173.689ZM908.575 246.133L923.004 432.863C923.78 442.896 932.734 450.278 942.731 449.124C951.684 448.091 958.441 440.51 958.441 431.496V371.48C958.441 366.51 960.825 361.841 964.85 358.926L1059.28 290.545C1067.17 284.833 1069.76 274.251 1065.41 265.542C1060.04 254.811 1046.47 251.237 1036.51 257.935L975.176 299.209C965.296 305.857 951.92 299.343 951.063 287.465L947.869 243.197C947.054 231.91 936.92 223.627 925.697 225.076C915.294 226.418 907.767 235.675 908.575 246.133ZM1096.9 274.844V420.324C1096.9 431.769 1105.83 441.225 1117.26 441.878C1129.65 442.586 1140.08 432.732 1140.08 420.324V274.844C1140.08 262.92 1130.42 253.254 1118.49 253.254C1106.57 253.254 1096.9 262.92 1096.9 274.844ZM1084.61 173.689L1101.94 214.849C1106.28 225.152 1117.63 230.593 1128.38 227.522C1141.17 223.869 1147.85 209.832 1142.64 197.602L1125.11 156.524C1120.85 146.532 1109.93 141.15 1099.4 143.856C1086.4 147.2 1079.4 161.314 1084.61 173.689ZM1314.35 230.338L1242.11 295.232C1232.13 304.196 1216.25 297.115 1216.25 283.702V125.417C1216.25 116.346 1207.37 109.941 1198.76 112.81C1193.34 114.619 1189.68 119.697 1189.68 125.417V425.593C1189.68 437.174 1199.88 446.104 1211.35 444.573C1220.87 443.305 1227.97 435.19 1227.97 425.593V381.079C1227.97 376.833 1229.71 372.774 1232.79 369.848L1251.47 352.076C1257.87 345.992 1268.05 346.47 1273.84 353.126L1342.14 431.532C1351.03 441.734 1367.12 440.958 1374.98 429.948C1380.55 422.156 1380.12 411.583 1373.94 404.265L1304.48 321.963C1299.19 315.702 1299.69 306.41 1305.62 300.753L1344.86 263.291C1353.13 255.404 1354.15 242.571 1347.25 233.471C1339.31 223.005 1324.12 221.558 1314.35 230.338Z" fill="#E87810" stroke="#E87810" stroke-width="9"/>
</svg>
