<svg width="578" height="99" viewBox="0 0 578 99" fill="none" xmlns="http://www.w3.org/2000/svg">
    <path d="M0.715094 40L15.5651 1.714H24.9071L39.5951 40H29.4971L18.4271 7.816H21.9371L10.5971 40H0.715094ZM9.73309 33.304V25.636H30.8471V33.304H9.73309ZM42.9532 40V0.633998H52.3492V40H42.9532ZM57.877 40V0.633998H67.273V40H57.877ZM90.6517 40.054L80.0677 13.594H90.1117L96.5917 35.356H92.6497L99.1837 13.594H109.228L98.3737 40L90.6517 40.054ZM84.3877 51.178L92.2177 33.952L98.3737 40L93.8377 51.178H84.3877ZM124.153 40.594C121.309 40.594 118.771 40 116.539 38.812C114.343 37.588 112.597 35.932 111.301 33.844C110.005 31.72 109.357 29.344 109.357 26.716C109.357 24.088 109.987 21.748 111.247 19.696C112.543 17.608 114.307 15.97 116.539 14.782C118.771 13.558 121.291 12.946 124.099 12.946C126.907 12.946 129.409 13.558 131.605 14.782C133.837 15.97 135.601 17.608 136.897 19.696C138.193 21.748 138.841 24.088 138.841 26.716C138.841 29.344 138.193 31.72 136.897 33.844C135.637 35.932 133.891 37.588 131.659 38.812C129.463 40 126.961 40.594 124.153 40.594ZM124.099 32.224C125.143 32.224 126.043 32.008 126.799 31.576C127.591 31.108 128.203 30.46 128.635 29.632C129.067 28.804 129.283 27.85 129.283 26.77C129.283 25.69 129.049 24.754 128.581 23.962C128.149 23.134 127.555 22.504 126.799 22.072C126.043 21.604 125.143 21.37 124.099 21.37C123.091 21.37 122.191 21.604 121.399 22.072C120.607 22.54 119.995 23.188 119.563 24.016C119.131 24.808 118.915 25.744 118.915 26.824C118.915 27.868 119.131 28.804 119.563 29.632C119.995 30.46 120.607 31.108 121.399 31.576C122.191 32.008 123.091 32.224 124.099 32.224ZM154.664 40.594C152.18 40.594 149.966 40.108 148.022 39.136C146.114 38.128 144.602 36.742 143.486 34.978C142.406 33.178 141.866 31.144 141.866 28.876V13.594H151.262V28.876C151.262 29.596 151.406 30.226 151.694 30.766C151.982 31.306 152.378 31.72 152.882 32.008C153.386 32.296 153.98 32.44 154.664 32.44C155.672 32.44 156.482 32.116 157.094 31.468C157.742 30.82 158.066 29.956 158.066 28.876V13.594H167.462V28.876C167.462 31.18 166.922 33.214 165.842 34.978C164.762 36.742 163.25 38.128 161.306 39.136C159.398 40.108 157.184 40.594 154.664 40.594ZM172.258 40V13.594H181.654V40H172.258ZM181.654 25.636L177.442 22.072C178.486 19.084 179.872 16.834 181.6 15.322C183.328 13.81 185.578 13.054 188.35 13.054C189.61 13.054 190.69 13.216 191.59 13.54C192.526 13.864 193.318 14.368 193.966 15.052L188.512 22.342C188.224 22.018 187.81 21.766 187.27 21.586C186.766 21.37 186.19 21.262 185.542 21.262C184.318 21.262 183.364 21.64 182.68 22.396C181.996 23.116 181.654 24.196 181.654 25.636ZM222.407 40.54C220.715 40.54 219.149 40.216 217.709 39.568C216.269 38.884 215.081 37.966 214.145 36.814C213.209 35.662 212.633 34.402 212.417 33.034V20.128C212.633 18.76 213.209 17.536 214.145 16.456C215.117 15.376 216.323 14.548 217.763 13.972C219.203 13.36 220.751 13.054 222.407 13.054C224.963 13.054 227.213 13.648 229.157 14.836C231.101 15.988 232.613 17.608 233.693 19.696C234.809 21.784 235.367 24.16 235.367 26.824C235.367 29.452 234.809 31.81 233.693 33.898C232.613 35.95 231.101 37.57 229.157 38.758C227.213 39.946 224.963 40.54 222.407 40.54ZM220.733 32.17C221.741 32.17 222.623 31.936 223.379 31.468C224.171 31 224.783 30.37 225.215 29.578C225.647 28.75 225.863 27.814 225.863 26.77C225.863 25.762 225.647 24.862 225.215 24.07C224.783 23.242 224.171 22.594 223.379 22.126C222.587 21.658 221.687 21.424 220.679 21.424C219.671 21.424 218.771 21.658 217.979 22.126C217.223 22.594 216.629 23.224 216.197 24.016C215.765 24.808 215.549 25.726 215.549 26.77C215.549 27.85 215.765 28.804 216.197 29.632C216.629 30.424 217.241 31.054 218.033 31.522C218.825 31.954 219.725 32.17 220.733 32.17ZM206.693 40V0.633998H216.089V20.074L214.523 26.446L215.873 32.926V40H206.693ZM251.327 40.594C248.843 40.594 246.629 40.108 244.685 39.136C242.777 38.128 241.265 36.742 240.149 34.978C239.069 33.178 238.529 31.144 238.529 28.876V13.594H247.925V28.876C247.925 29.596 248.069 30.226 248.357 30.766C248.645 31.306 249.041 31.72 249.545 32.008C250.049 32.296 250.643 32.44 251.327 32.44C252.335 32.44 253.145 32.116 253.757 31.468C254.405 30.82 254.729 29.956 254.729 28.876V13.594H264.125V28.876C264.125 31.18 263.585 33.214 262.505 34.978C261.425 36.742 259.913 38.128 257.969 39.136C256.061 40.108 253.847 40.594 251.327 40.594ZM278.964 40.756C277.344 40.756 275.742 40.54 274.158 40.108C272.61 39.676 271.152 39.1 269.784 38.38C268.452 37.624 267.318 36.76 266.382 35.788L271.512 30.55C272.376 31.45 273.402 32.152 274.59 32.656C275.814 33.16 277.11 33.412 278.478 33.412C279.27 33.412 279.864 33.304 280.26 33.088C280.692 32.872 280.908 32.566 280.908 32.17C280.908 31.594 280.602 31.162 279.99 30.874C279.414 30.55 278.64 30.28 277.668 30.064C276.732 29.812 275.742 29.524 274.698 29.2C273.654 28.84 272.646 28.372 271.674 27.796C270.702 27.22 269.91 26.41 269.298 25.366C268.722 24.322 268.434 22.99 268.434 21.37C268.434 19.678 268.884 18.202 269.784 16.942C270.72 15.646 272.016 14.638 273.672 13.918C275.328 13.162 277.272 12.784 279.504 12.784C281.772 12.784 283.932 13.18 285.984 13.972C288.036 14.728 289.692 15.88 290.952 17.428L285.768 22.666C284.904 21.694 283.95 21.028 282.906 20.668C281.862 20.272 280.908 20.074 280.044 20.074C279.216 20.074 278.622 20.2 278.262 20.452C277.902 20.668 277.722 20.974 277.722 21.37C277.722 21.838 278.01 22.216 278.586 22.504C279.198 22.792 279.972 23.062 280.908 23.314C281.88 23.53 282.87 23.818 283.878 24.178C284.922 24.538 285.912 25.042 286.848 25.69C287.82 26.302 288.594 27.13 289.17 28.174C289.782 29.218 290.088 30.568 290.088 32.224C290.088 34.852 289.08 36.94 287.064 38.488C285.048 40 282.348 40.756 278.964 40.756ZM294.284 40V13.594H303.734V40H294.284ZM298.982 10.516C297.578 10.516 296.408 10.048 295.472 9.112C294.536 8.14 294.068 6.934 294.068 5.494C294.068 4.09 294.536 2.902 295.472 1.93C296.408 0.957997 297.578 0.471997 298.982 0.471997C300.458 0.471997 301.646 0.957997 302.546 1.93C303.482 2.902 303.95 4.09 303.95 5.494C303.95 6.934 303.482 8.14 302.546 9.112C301.646 10.048 300.458 10.516 298.982 10.516ZM326.327 40V25.096C326.327 23.872 325.967 22.918 325.247 22.234C324.527 21.514 323.609 21.154 322.493 21.154C321.737 21.154 321.053 21.316 320.441 21.64C319.865 21.964 319.415 22.414 319.091 22.99C318.767 23.566 318.605 24.268 318.605 25.096L314.933 23.368C314.933 21.244 315.401 19.426 316.337 17.914C317.273 16.366 318.551 15.178 320.171 14.35C321.827 13.486 323.699 13.054 325.787 13.054C327.695 13.054 329.387 13.504 330.863 14.404C332.375 15.268 333.563 16.438 334.427 17.914C335.291 19.39 335.723 21.064 335.723 22.936V40H326.327ZM309.209 40V13.594H318.605V40H309.209ZM354.03 40.594C351.078 40.594 348.468 40.018 346.2 38.866C343.932 37.678 342.15 36.04 340.854 33.952C339.558 31.864 338.91 29.47 338.91 26.77C338.91 24.106 339.54 21.748 340.8 19.696C342.06 17.608 343.77 15.97 345.93 14.782C348.126 13.558 350.592 12.946 353.328 12.946C355.992 12.946 358.35 13.522 360.402 14.674C362.49 15.79 364.11 17.356 365.262 19.372C366.45 21.352 367.044 23.62 367.044 26.176C367.044 26.716 367.008 27.274 366.936 27.85C366.9 28.39 366.792 29.02 366.612 29.74L343.338 29.848V23.8L362.886 23.638L358.674 26.284C358.638 24.808 358.422 23.602 358.026 22.666C357.63 21.694 357.054 20.956 356.298 20.452C355.542 19.948 354.588 19.696 353.436 19.696C352.248 19.696 351.222 19.984 350.358 20.56C349.494 21.136 348.828 21.946 348.36 22.99C347.892 24.034 347.658 25.294 347.658 26.77C347.658 28.282 347.91 29.578 348.414 30.658C348.918 31.702 349.638 32.494 350.574 33.034C351.51 33.574 352.662 33.844 354.03 33.844C355.326 33.844 356.46 33.628 357.432 33.196C358.44 32.764 359.34 32.098 360.132 31.198L365.046 36.112C363.75 37.588 362.166 38.704 360.294 39.46C358.458 40.216 356.37 40.594 354.03 40.594ZM380.636 40.756C379.016 40.756 377.414 40.54 375.83 40.108C374.282 39.676 372.824 39.1 371.456 38.38C370.124 37.624 368.99 36.76 368.054 35.788L373.184 30.55C374.048 31.45 375.074 32.152 376.262 32.656C377.486 33.16 378.782 33.412 380.15 33.412C380.942 33.412 381.536 33.304 381.932 33.088C382.364 32.872 382.58 32.566 382.58 32.17C382.58 31.594 382.274 31.162 381.662 30.874C381.086 30.55 380.312 30.28 379.34 30.064C378.404 29.812 377.414 29.524 376.37 29.2C375.326 28.84 374.318 28.372 373.346 27.796C372.374 27.22 371.582 26.41 370.97 25.366C370.394 24.322 370.106 22.99 370.106 21.37C370.106 19.678 370.556 18.202 371.456 16.942C372.392 15.646 373.688 14.638 375.344 13.918C377 13.162 378.944 12.784 381.176 12.784C383.444 12.784 385.604 13.18 387.656 13.972C389.708 14.728 391.364 15.88 392.624 17.428L387.44 22.666C386.576 21.694 385.622 21.028 384.578 20.668C383.534 20.272 382.58 20.074 381.716 20.074C380.888 20.074 380.294 20.2 379.934 20.452C379.574 20.668 379.394 20.974 379.394 21.37C379.394 21.838 379.682 22.216 380.258 22.504C380.87 22.792 381.644 23.062 382.58 23.314C383.552 23.53 384.542 23.818 385.55 24.178C386.594 24.538 387.584 25.042 388.52 25.69C389.492 26.302 390.266 27.13 390.842 28.174C391.454 29.218 391.76 30.568 391.76 32.224C391.76 34.852 390.752 36.94 388.736 38.488C386.72 40 384.02 40.756 380.636 40.756ZM406.054 40.756C404.434 40.756 402.832 40.54 401.248 40.108C399.7 39.676 398.242 39.1 396.874 38.38C395.542 37.624 394.408 36.76 393.472 35.788L398.602 30.55C399.466 31.45 400.492 32.152 401.68 32.656C402.904 33.16 404.2 33.412 405.568 33.412C406.36 33.412 406.954 33.304 407.35 33.088C407.782 32.872 407.998 32.566 407.998 32.17C407.998 31.594 407.692 31.162 407.08 30.874C406.504 30.55 405.73 30.28 404.758 30.064C403.822 29.812 402.832 29.524 401.788 29.2C400.744 28.84 399.736 28.372 398.764 27.796C397.792 27.22 397 26.41 396.388 25.366C395.812 24.322 395.524 22.99 395.524 21.37C395.524 19.678 395.974 18.202 396.874 16.942C397.81 15.646 399.106 14.638 400.762 13.918C402.418 13.162 404.362 12.784 406.594 12.784C408.862 12.784 411.022 13.18 413.074 13.972C415.126 14.728 416.782 15.88 418.042 17.428L412.858 22.666C411.994 21.694 411.04 21.028 409.996 20.668C408.952 20.272 407.998 20.074 407.134 20.074C406.306 20.074 405.712 20.2 405.352 20.452C404.992 20.668 404.812 20.974 404.812 21.37C404.812 21.838 405.1 22.216 405.676 22.504C406.288 22.792 407.062 23.062 407.998 23.314C408.97 23.53 409.96 23.818 410.968 24.178C412.012 24.538 413.002 25.042 413.938 25.69C414.91 26.302 415.684 27.13 416.26 28.174C416.872 29.218 417.178 30.568 417.178 32.224C417.178 34.852 416.17 36.94 414.154 38.488C412.138 40 409.438 40.756 406.054 40.756ZM448.513 40V25.096C448.513 23.872 448.153 22.918 447.433 22.234C446.713 21.514 445.795 21.154 444.679 21.154C443.923 21.154 443.239 21.316 442.627 21.64C442.051 21.964 441.601 22.414 441.277 22.99C440.953 23.566 440.791 24.268 440.791 25.096L437.119 23.368C437.119 21.244 437.587 19.426 438.523 17.914C439.459 16.366 440.737 15.178 442.357 14.35C444.013 13.486 445.885 13.054 447.973 13.054C449.881 13.054 451.573 13.504 453.049 14.404C454.561 15.268 455.749 16.438 456.613 17.914C457.477 19.39 457.909 21.064 457.909 22.936V40H448.513ZM431.395 40V13.594H440.791V40H431.395ZM476.215 40.594C473.263 40.594 470.653 40.018 468.385 38.866C466.117 37.678 464.335 36.04 463.039 33.952C461.743 31.864 461.095 29.47 461.095 26.77C461.095 24.106 461.725 21.748 462.985 19.696C464.245 17.608 465.955 15.97 468.115 14.782C470.311 13.558 472.777 12.946 475.513 12.946C478.177 12.946 480.535 13.522 482.587 14.674C484.675 15.79 486.295 17.356 487.447 19.372C488.635 21.352 489.229 23.62 489.229 26.176C489.229 26.716 489.193 27.274 489.121 27.85C489.085 28.39 488.977 29.02 488.797 29.74L465.523 29.848V23.8L485.071 23.638L480.859 26.284C480.823 24.808 480.607 23.602 480.211 22.666C479.815 21.694 479.239 20.956 478.483 20.452C477.727 19.948 476.773 19.696 475.621 19.696C474.433 19.696 473.407 19.984 472.543 20.56C471.679 21.136 471.013 21.946 470.545 22.99C470.077 24.034 469.843 25.294 469.843 26.77C469.843 28.282 470.095 29.578 470.599 30.658C471.103 31.702 471.823 32.494 472.759 33.034C473.695 33.574 474.847 33.844 476.215 33.844C477.511 33.844 478.645 33.628 479.617 33.196C480.625 32.764 481.525 32.098 482.317 31.198L487.231 36.112C485.935 37.588 484.351 38.704 482.479 39.46C480.643 40.216 478.555 40.594 476.215 40.594ZM506.115 40.594C503.163 40.594 500.553 40.018 498.285 38.866C496.017 37.678 494.235 36.04 492.939 33.952C491.643 31.864 490.995 29.47 490.995 26.77C490.995 24.106 491.625 21.748 492.885 19.696C494.145 17.608 495.855 15.97 498.015 14.782C500.211 13.558 502.677 12.946 505.413 12.946C508.077 12.946 510.435 13.522 512.487 14.674C514.575 15.79 516.195 17.356 517.347 19.372C518.535 21.352 519.129 23.62 519.129 26.176C519.129 26.716 519.093 27.274 519.021 27.85C518.985 28.39 518.877 29.02 518.697 29.74L495.423 29.848V23.8L514.971 23.638L510.759 26.284C510.723 24.808 510.507 23.602 510.111 22.666C509.715 21.694 509.139 20.956 508.383 20.452C507.627 19.948 506.673 19.696 505.521 19.696C504.333 19.696 503.307 19.984 502.443 20.56C501.579 21.136 500.913 21.946 500.445 22.99C499.977 24.034 499.743 25.294 499.743 26.77C499.743 28.282 499.995 29.578 500.499 30.658C501.003 31.702 501.723 32.494 502.659 33.034C503.595 33.574 504.747 33.844 506.115 33.844C507.411 33.844 508.545 33.628 509.517 33.196C510.525 32.764 511.425 32.098 512.217 31.198L517.131 36.112C515.835 37.588 514.251 38.704 512.379 39.46C510.543 40.216 508.455 40.594 506.115 40.594ZM534.018 40.54C531.462 40.54 529.212 39.946 527.268 38.758C525.324 37.57 523.794 35.95 522.678 33.898C521.598 31.81 521.058 29.452 521.058 26.824C521.058 24.16 521.598 21.784 522.678 19.696C523.794 17.608 525.306 15.988 527.214 14.836C529.158 13.648 531.426 13.054 534.018 13.054C535.674 13.054 537.222 13.36 538.662 13.972C540.102 14.548 541.308 15.376 542.28 16.456C543.252 17.536 543.828 18.76 544.008 20.128V33.034C543.828 34.402 543.252 35.662 542.28 36.814C541.308 37.966 540.102 38.884 538.662 39.568C537.222 40.216 535.674 40.54 534.018 40.54ZM535.692 32.17C536.736 32.17 537.636 31.954 538.392 31.522C539.148 31.054 539.742 30.424 540.174 29.632C540.642 28.804 540.876 27.85 540.876 26.77C540.876 25.726 540.66 24.808 540.228 24.016C539.796 23.224 539.184 22.594 538.392 22.126C537.636 21.658 536.754 21.424 535.746 21.424C534.738 21.424 533.838 21.658 533.046 22.126C532.29 22.594 531.678 23.242 531.21 24.07C530.778 24.862 530.562 25.762 530.562 26.77C530.562 27.814 530.778 28.75 531.21 29.578C531.642 30.37 532.254 31 533.046 31.468C533.838 31.936 534.72 32.17 535.692 32.17ZM549.732 40H540.498V32.926L541.848 26.446L540.336 20.074V0.633998H549.732V40ZM565.259 40.756C563.639 40.756 562.037 40.54 560.453 40.108C558.905 39.676 557.447 39.1 556.079 38.38C554.747 37.624 553.613 36.76 552.677 35.788L557.807 30.55C558.671 31.45 559.697 32.152 560.885 32.656C562.109 33.16 563.405 33.412 564.773 33.412C565.565 33.412 566.159 33.304 566.555 33.088C566.987 32.872 567.203 32.566 567.203 32.17C567.203 31.594 566.897 31.162 566.285 30.874C565.709 30.55 564.935 30.28 563.963 30.064C563.027 29.812 562.037 29.524 560.993 29.2C559.949 28.84 558.941 28.372 557.969 27.796C556.997 27.22 556.205 26.41 555.593 25.366C555.017 24.322 554.729 22.99 554.729 21.37C554.729 19.678 555.179 18.202 556.079 16.942C557.015 15.646 558.311 14.638 559.967 13.918C561.623 13.162 563.567 12.784 565.799 12.784C568.067 12.784 570.227 13.18 572.279 13.972C574.331 14.728 575.987 15.88 577.247 17.428L572.063 22.666C571.199 21.694 570.245 21.028 569.201 20.668C568.157 20.272 567.203 20.074 566.339 20.074C565.511 20.074 564.917 20.2 564.557 20.452C564.197 20.668 564.017 20.974 564.017 21.37C564.017 21.838 564.305 22.216 564.881 22.504C565.493 22.792 566.267 23.062 567.203 23.314C568.175 23.53 569.165 23.818 570.173 24.178C571.217 24.538 572.207 25.042 573.143 25.69C574.115 26.302 574.889 27.13 575.465 28.174C576.077 29.218 576.383 30.568 576.383 32.224C576.383 34.852 575.375 36.94 573.359 38.488C571.343 40 568.643 40.756 565.259 40.756Z" fill="white"/>
    <path d="M178.562 90.52C176.376 90.52 174.362 90.1467 172.522 89.4C170.682 88.6533 169.069 87.6133 167.682 86.28C166.322 84.9467 165.256 83.3867 164.482 81.6C163.709 79.7867 163.322 77.84 163.322 75.76C163.322 73.68 163.696 71.76 164.442 70C165.216 68.2133 166.282 66.6533 167.642 65.32C169.002 63.9867 170.602 62.96 172.442 62.24C174.282 61.4933 176.296 61.12 178.482 61.12C180.669 61.12 182.682 61.4933 184.522 62.24C186.362 62.96 187.962 63.9867 189.322 65.32C190.682 66.6533 191.736 68.2133 192.482 70C193.256 71.7867 193.642 73.72 193.642 75.8C193.642 77.88 193.256 79.8133 192.482 81.6C191.736 83.3867 190.682 84.96 189.322 86.32C187.962 87.6533 186.362 88.6933 184.522 89.44C182.709 90.16 180.722 90.52 178.562 90.52ZM178.482 84.12C180.082 84.12 181.469 83.7733 182.642 83.08C183.816 82.3867 184.722 81.4133 185.362 80.16C186.002 78.9067 186.322 77.44 186.322 75.76C186.322 74.5333 186.136 73.4133 185.762 72.4C185.416 71.3867 184.896 70.52 184.202 69.8C183.509 69.0533 182.682 68.48 181.722 68.08C180.762 67.68 179.682 67.48 178.482 67.48C176.882 67.48 175.496 67.8267 174.322 68.52C173.149 69.1867 172.242 70.1467 171.602 71.4C170.962 72.6533 170.642 74.1067 170.642 75.76C170.642 77.04 170.816 78.2 171.162 79.24C171.536 80.2533 172.069 81.1333 172.762 81.88C173.456 82.6 174.282 83.16 175.242 83.56C176.202 83.9333 177.282 84.12 178.482 84.12ZM209.423 90V78.96C209.423 78.0533 209.156 77.3467 208.623 76.84C208.09 76.3067 207.41 76.04 206.583 76.04C206.023 76.04 205.516 76.16 205.063 76.4C204.636 76.64 204.303 76.9733 204.063 77.4C203.823 77.8267 203.703 78.3467 203.703 78.96L200.983 77.68C200.983 76.1067 201.33 74.76 202.023 73.64C202.716 72.4933 203.663 71.6133 204.863 71C206.09 70.36 207.476 70.04 209.023 70.04C210.436 70.04 211.69 70.3733 212.783 71.04C213.903 71.68 214.783 72.5467 215.423 73.64C216.063 74.7333 216.383 75.9733 216.383 77.36V90H209.423ZM196.743 90V70.44H203.703V90H196.743ZM229.943 90.44C227.757 90.44 225.823 90.0133 224.143 89.16C222.463 88.28 221.143 87.0667 220.183 85.52C219.223 83.9733 218.743 82.2 218.743 80.2C218.743 78.2267 219.21 76.48 220.143 74.96C221.077 73.4133 222.343 72.2 223.943 71.32C225.57 70.4133 227.397 69.96 229.423 69.96C231.397 69.96 233.143 70.3867 234.663 71.24C236.21 72.0667 237.41 73.2267 238.263 74.72C239.143 76.1867 239.583 77.8667 239.583 79.76C239.583 80.16 239.557 80.5733 239.503 81C239.477 81.4 239.397 81.8667 239.263 82.4L222.023 82.48V78L236.503 77.88L233.383 79.84C233.357 78.7467 233.197 77.8533 232.903 77.16C232.61 76.44 232.183 75.8933 231.623 75.52C231.063 75.1467 230.357 74.96 229.503 74.96C228.623 74.96 227.863 75.1733 227.223 75.6C226.583 76.0267 226.09 76.6267 225.743 77.4C225.397 78.1733 225.223 79.1067 225.223 80.2C225.223 81.32 225.41 82.28 225.783 83.08C226.157 83.8533 226.69 84.44 227.383 84.84C228.077 85.24 228.93 85.44 229.943 85.44C230.903 85.44 231.743 85.28 232.463 84.96C233.21 84.64 233.877 84.1467 234.463 83.48L238.103 87.12C237.143 88.2133 235.97 89.04 234.583 89.6C233.223 90.16 231.677 90.44 229.943 90.44ZM261.235 90.4C259.981 90.4 258.821 90.1733 257.755 89.72C256.688 89.2667 255.808 88.6533 255.115 87.88C254.421 87.08 253.995 86.16 253.835 85.12V75.6C253.995 74.56 254.421 73.6267 255.115 72.8C255.835 71.9467 256.715 71.28 257.755 70.8C258.821 70.2933 259.981 70.04 261.235 70.04C263.128 70.04 264.795 70.48 266.235 71.36C267.675 72.2133 268.795 73.4133 269.595 74.96C270.421 76.5067 270.835 78.2667 270.835 80.24C270.835 82.1867 270.421 83.9333 269.595 85.48C268.795 87 267.675 88.2 266.235 89.08C264.795 89.96 263.128 90.4 261.235 90.4ZM259.915 84.2C260.688 84.2 261.368 84.0267 261.955 83.68C262.541 83.3333 262.995 82.8667 263.315 82.28C263.635 81.6667 263.795 80.9733 263.795 80.2C263.795 79.4267 263.635 78.7467 263.315 78.16C262.995 77.5733 262.541 77.1067 261.955 76.76C261.368 76.4133 260.701 76.24 259.955 76.24C259.235 76.24 258.581 76.4133 257.995 76.76C257.408 77.08 256.955 77.5467 256.635 78.16C256.315 78.7467 256.155 79.4267 256.155 80.2C256.155 80.9733 256.315 81.6667 256.635 82.28C256.955 82.8667 257.395 83.3333 257.955 83.68C258.541 84.0267 259.195 84.2 259.915 84.2ZM249.595 98.28V70.44H256.555V75.36L255.395 80.08L256.395 84.84V98.28H249.595ZM273.696 90V60.84H280.656V90H273.696ZM292.911 90.4C291.098 90.4 289.484 89.96 288.071 89.08C286.658 88.2 285.551 87 284.751 85.48C283.951 83.9333 283.551 82.1867 283.551 80.24C283.551 78.2667 283.951 76.5067 284.751 74.96C285.551 73.4133 286.658 72.2133 288.071 71.36C289.484 70.48 291.098 70.04 292.911 70.04C294.138 70.04 295.258 70.2667 296.271 70.72C297.284 71.1467 298.111 71.76 298.751 72.56C299.418 73.36 299.818 74.2667 299.951 75.28V85.12C299.818 86.16 299.418 87.08 298.751 87.88C298.111 88.6533 297.284 89.2667 296.271 89.72C295.258 90.1733 294.138 90.4 292.911 90.4ZM294.391 84.2C295.538 84.2 296.458 83.8267 297.151 83.08C297.871 82.3333 298.231 81.3733 298.231 80.2C298.231 79.4267 298.071 78.7467 297.751 78.16C297.431 77.5733 296.978 77.1067 296.391 76.76C295.831 76.4133 295.178 76.24 294.431 76.24C293.684 76.24 293.018 76.4133 292.431 76.76C291.871 77.1067 291.418 77.5867 291.071 78.2C290.751 78.7867 290.591 79.4533 290.591 80.2C290.591 80.9733 290.751 81.6667 291.071 82.28C291.391 82.8667 291.844 83.3333 292.431 83.68C293.018 84.0267 293.671 84.2 294.391 84.2ZM297.951 90V84.76L298.951 79.96L297.951 75.24V70.44H304.791V90H297.951ZM311.533 90V62.36H318.493V90H311.533ZM307.213 76.24V70.44H322.813V76.24H307.213ZM327.229 90V69.2C327.229 67.5467 327.589 66.0667 328.309 64.76C329.029 63.4267 330.056 62.36 331.389 61.56C332.749 60.76 334.376 60.36 336.269 60.36C337.682 60.36 338.922 60.6 339.989 61.08C341.056 61.5333 341.976 62.1467 342.749 62.92L338.389 67.28C338.176 67.04 337.909 66.8667 337.589 66.76C337.296 66.6267 336.949 66.56 336.549 66.56C335.829 66.56 335.256 66.7733 334.829 67.2C334.402 67.6267 334.189 68.2 334.189 68.92V90H327.229ZM323.069 76.24V70.44H339.709V76.24H323.069ZM351.774 90.44C349.667 90.44 347.787 90 346.134 89.12C344.507 88.2133 343.214 86.9867 342.254 85.44C341.294 83.8667 340.814 82.1067 340.814 80.16C340.814 78.2133 341.28 76.48 342.214 74.96C343.174 73.4133 344.48 72.2 346.134 71.32C347.787 70.4133 349.654 69.96 351.734 69.96C353.814 69.96 355.667 70.4133 357.294 71.32C358.947 72.2 360.254 73.4133 361.214 74.96C362.174 76.48 362.654 78.2133 362.654 80.16C362.654 82.1067 362.174 83.8667 361.214 85.44C360.28 86.9867 358.987 88.2133 357.334 89.12C355.707 90 353.854 90.44 351.774 90.44ZM351.734 84.24C352.507 84.24 353.174 84.08 353.734 83.76C354.32 83.4133 354.774 82.9333 355.094 82.32C355.414 81.7067 355.574 81 355.574 80.2C355.574 79.4 355.4 78.7067 355.054 78.12C354.734 77.5067 354.294 77.04 353.734 76.72C353.174 76.3733 352.507 76.2 351.734 76.2C350.987 76.2 350.32 76.3733 349.734 76.72C349.147 77.0667 348.694 77.5467 348.374 78.16C348.054 78.7467 347.894 79.44 347.894 80.24C347.894 81.0133 348.054 81.7067 348.374 82.32C348.694 82.9333 349.147 83.4133 349.734 83.76C350.32 84.08 350.987 84.24 351.734 84.24ZM365.415 90V70.44H372.375V90H365.415ZM372.375 79.36L369.255 76.72C370.028 74.5067 371.055 72.84 372.335 71.72C373.615 70.6 375.282 70.04 377.335 70.04C378.268 70.04 379.068 70.16 379.735 70.4C380.428 70.64 381.015 71.0133 381.495 71.52L377.455 76.92C377.242 76.68 376.935 76.4933 376.535 76.36C376.162 76.2 375.735 76.12 375.255 76.12C374.348 76.12 373.642 76.4 373.135 76.96C372.628 77.4933 372.375 78.2933 372.375 79.36ZM382.642 90V70.44H389.602V90H382.642ZM394.922 90V78.68C394.922 77.8533 394.668 77.2133 394.162 76.76C393.655 76.28 393.028 76.04 392.282 76.04C391.748 76.04 391.282 76.1467 390.882 76.36C390.482 76.5733 390.162 76.88 389.922 77.28C389.708 77.6533 389.602 78.12 389.602 78.68L386.882 77.6C386.882 76.0267 387.228 74.68 387.922 73.56C388.615 72.44 389.548 71.5733 390.722 70.96C391.895 70.3467 393.228 70.04 394.722 70.04C396.055 70.04 397.255 70.36 398.322 71C399.415 71.6133 400.282 72.48 400.922 73.6C401.562 74.72 401.882 76.04 401.882 77.56V90H394.922ZM407.202 90V78.68C407.202 77.8533 406.948 77.2133 406.442 76.76C405.935 76.28 405.308 76.04 404.562 76.04C404.055 76.04 403.588 76.1467 403.162 76.36C402.762 76.5733 402.442 76.88 402.202 77.28C401.988 77.6533 401.882 78.12 401.882 78.68L397.802 78.48C397.855 76.72 398.242 75.2133 398.962 73.96C399.682 72.7067 400.668 71.7467 401.922 71.08C403.202 70.3867 404.642 70.04 406.242 70.04C407.762 70.04 409.122 70.36 410.322 71C411.522 71.64 412.455 72.5733 413.122 73.8C413.815 75 414.162 76.44 414.162 78.12V90H407.202Z" fill="#E87810"/>
</svg>
