<svg width="512" height="512" viewBox="0 0 512 512" fill="none" xmlns="http://www.w3.org/2000/svg">
    <path fill-rule="evenodd" clip-rule="evenodd" d="M0 256C0 114.615 114.615 0 256 0C397.385 0 512 114.615 512 256C512 304.073 498.749 349.052 475.701 387.482C472.88 392.185 468.108 395.346 462.718 396.359L423.533 403.72C411.223 406.033 399.841 396.59 399.841 384.064V254.832C399.841 244.01 408.449 235.151 419.267 234.84L449.907 233.961C460.725 233.651 469.333 224.792 469.333 213.969V186C469.333 174.954 460.379 166 449.333 166H419.841C408.795 166 399.841 157.046 399.841 146V112.5C399.841 101.454 390.886 92.4998 379.841 92.4998H349.5C338.454 92.4998 329.5 101.454 329.5 112.5V146C329.5 157.046 320.546 166 309.5 166H268.635C267.547 166 266.46 166.089 265.386 166.265L227.1 172.568C220.975 173.577 215.263 168.316 209.904 165.181V165.181C206.379 163.119 201.822 162.869 197.591 165.396L111.151 215.996C104.913 219.648 97.1889 219.649 90.9492 215.999L48.2832 191.043C42.2242 187.499 33.9494 190.42 29.8947 197.536C29.2312 198.7 28.6778 199.929 28.3448 201.286L11.7599 257.293C9.56544 264.703 0 263.729 0 256V256ZM18.0599 346.022C16.5861 345.161 15.4536 343.818 14.879 342.211V342.211C14.3614 340.764 14.3274 339.188 14.7631 337.714L40.7328 249.845C44.4134 237.391 58.8014 231.693 70.0106 238.25L217.976 324.8C229.035 331.269 231.245 346.322 222.511 355.696L167.232 415.031C160.857 421.873 150.592 423.385 142.516 418.67L18.0599 346.022ZM110.9 434.659C92.7974 424.07 77.9906 441.165 94.238 454.427C138.332 490.416 194.645 512 256 512C299.465 512 340.4 501.168 376.252 482.056C381.828 479.084 378.654 472.152 372.594 473.94V473.94C370.419 474.581 368.072 473.848 366.648 472.083L333.929 431.494C331.063 427.939 329.5 423.509 329.5 418.942V250.115C329.5 241.361 323.807 233.624 315.449 231.02L257.648 213.013C256.551 212.672 255.428 212.425 254.289 212.276L238.489 210.213C226.524 208.65 215.91 217.958 215.898 230.025L215.852 277.568C215.845 284.68 219.615 291.26 225.754 294.851L268.609 319.918C274.668 323.462 276.307 332.184 272.253 339.299L269.932 342.599L173.609 446.156C164.773 455.476 151.72 458.535 141.585 452.607L110.9 434.659ZM159.25 255.951C172.571 263.743 189.323 254.152 189.348 238.72L189.352 236.148C189.378 220.672 172.571 211.033 159.226 218.869L157.029 220.158C143.852 227.895 143.868 246.953 157.058 254.669L159.25 255.951ZM92.1798 320.214C100.289 305.983 116.839 300.14 128.957 307.228C141.075 314.316 144.354 331.759 136.245 345.989C128.135 360.22 111.586 366.063 99.4678 358.975C87.3499 351.887 84.0703 334.444 92.1798 320.214Z" fill="white"/>
</svg>
